<svg width="56" height="56" viewBox="0 0 56 56" fill="none" xmlns="http://www.w3.org/2000/svg">
<g id="Component 32">
<path id="Vector" d="M47.25 9.625H8.75C8.05381 9.625 7.38613 9.90156 6.89384 10.3938C6.40156 10.8861 6.125 11.5538 6.125 12.25V45.5C6.125 46.6603 6.58594 47.7731 7.40641 48.5936C8.22688 49.4141 9.33968 49.875 10.5 49.875H19.25C20.4103 49.875 21.5231 49.4141 22.3436 48.5936C23.1641 47.7731 23.625 46.6603 23.625 45.5V35.875H32.375V38.5C32.375 39.6603 32.8359 40.7731 33.6564 41.5936C34.4769 42.4141 35.5897 42.875 36.75 42.875H45.5C46.6603 42.875 47.7731 42.4141 48.5936 41.5936C49.4141 40.7731 49.875 39.6603 49.875 38.5V12.25C49.875 11.5538 49.5984 10.8861 49.1062 10.3938C48.6139 9.90156 47.9462 9.625 47.25 9.625ZM44.625 23.625H37.625V14.875H44.625V23.625ZM18.375 14.875V23.625H11.375V14.875H18.375ZM18.375 44.625H11.375V28.875H18.375V44.625ZM23.625 30.625V14.875H32.375V30.625H23.625ZM37.625 37.625V28.875H44.625V37.625H37.625Z" fill="#003F88"/>
</g>
</svg>
