<svg xmlns="http://www.w3.org/2000/svg" width="72" height="72" viewBox="0 0 72 72" fill="none">
    <g clip-path="url(#clip0_164_103)">
        <path
            d="M24.0029 36C24.0029 29.3728 29.3738 23.999 36.001 23.999C42.6281 23.999 48.0019 29.3728 48.0019 36C48.0019 42.6272 42.6281 48.001 36.001 48.001C29.3738 48.001 24.0029 42.6272 24.0029 36ZM17.5154 36C17.5154 46.2096 25.7914 54.4856 36.001 54.4856C46.2106 54.4856 54.4865 46.2096 54.4865 36C54.4865 25.7904 46.2106 17.5144 36.001 17.5144C25.7914 17.5144 17.5154 25.7904 17.5154 36ZM50.8984 16.7815C50.898 17.6359 51.151 18.4712 51.6254 19.1818C52.0998 19.8924 52.7743 20.4464 53.5636 20.7737C54.3528 21.101 55.2214 21.1869 56.0594 21.0205C56.8975 20.8542 57.6674 20.443 58.2718 19.8391C58.8762 19.2352 59.288 18.4656 59.455 17.6277C59.622 16.7898 59.5368 15.9211 59.2102 15.1316C58.8835 14.3421 58.3301 13.6672 57.6199 13.1922C56.9096 12.7172 56.0745 12.4635 55.2201 12.4632H55.2184C54.0731 12.4637 52.9748 12.9188 52.1648 13.7285C51.3549 14.5381 50.8993 15.6362 50.8984 16.7815ZM21.457 65.3031C17.9471 65.1433 16.0394 64.5587 14.7716 64.0647C13.0909 63.4104 11.8916 62.6311 10.6308 61.3719C9.3699 60.1128 8.58942 58.9147 7.93797 57.234C7.44376 55.9668 6.85912 54.0585 6.69957 50.5486C6.52504 46.7539 6.49019 45.614 6.49019 36.0003C6.49019 26.3866 6.52792 25.2498 6.69957 21.452C6.85941 17.9421 7.44837 16.0376 7.93797 14.7666C8.5923 13.0859 9.37163 11.8866 10.6308 10.6258C11.8899 9.3649 13.088 8.58442 14.7716 7.93296C16.0388 7.43875 17.9471 6.85411 21.457 6.69456C25.2517 6.52003 26.3916 6.48518 36.001 6.48518C45.6104 6.48518 46.7514 6.52291 50.5493 6.69456C54.0592 6.8544 55.9637 7.44336 57.2346 7.93296C58.9154 8.58442 60.1146 9.36662 61.3755 10.6258C62.6364 11.8849 63.414 13.0859 64.0683 14.7666C64.5625 16.0338 65.1472 17.9421 65.3067 21.452C65.4812 25.2498 65.5161 26.3866 65.5161 36.0003C65.5161 45.614 65.4812 46.7508 65.3067 50.5486C65.1469 54.0585 64.5593 55.9662 64.0683 57.234C63.414 58.9147 62.6346 60.1139 61.3755 61.3719C60.1164 62.6299 58.9154 63.4104 57.2346 64.0647C55.9674 64.5589 54.0592 65.1436 50.5493 65.3031C46.7546 65.4777 45.6147 65.5125 36.001 65.5125C26.3872 65.5125 25.2505 65.4777 21.457 65.3031ZM21.1589 0.218016C17.3265 0.392544 14.7077 1.00022 12.4207 1.89014C10.0522 2.80915 8.04712 4.04208 6.0435 6.04253C4.03989 8.04298 2.81013 10.0512 1.89112 12.4197C1.0012 14.7082 0.393521 17.3255 0.218993 21.1579C0.0415846 24.9964 0.000976562 26.2236 0.000976562 36C0.000976562 45.7764 0.0415846 47.0036 0.218993 50.8421C0.393521 54.6748 1.0012 57.2918 1.89112 59.5803C2.81013 61.9474 4.04018 63.9579 6.0435 65.9575C8.04683 67.9571 10.0522 69.1883 12.4207 70.1099C14.712 70.9998 17.3265 71.6075 21.1589 71.782C24.9994 71.9565 26.2245 72 36.001 72C45.7774 72 47.0046 71.9594 50.8431 71.782C54.6758 71.6075 57.2928 70.9998 59.5813 70.1099C61.9483 69.1883 63.9548 67.9579 65.9584 65.9575C67.9621 63.957 69.1892 61.9474 70.1108 59.5803C71.0008 57.2918 71.6113 54.6745 71.783 50.8421C71.9575 47.0007 71.9981 45.7764 71.9981 36C71.9981 26.2236 71.9575 24.9964 71.783 21.1579C71.6084 17.3252 71.0008 14.7067 70.1108 12.4197C69.1892 10.0526 67.9589 8.04614 65.9584 6.04253C63.958 4.03891 61.9483 2.80915 59.5841 1.89014C57.2928 1.00022 54.6755 0.389664 50.8459 0.218016C47.0075 0.043488 45.7803 0 36.0039 0C26.2274 0 24.9994 0.040608 21.1589 0.218016Z"
            fill="url(#paint0_radial_164_103)" />
        <path
            d="M24.0029 36C24.0029 29.3728 29.3738 23.999 36.001 23.999C42.6281 23.999 48.0019 29.3728 48.0019 36C48.0019 42.6272 42.6281 48.001 36.001 48.001C29.3738 48.001 24.0029 42.6272 24.0029 36ZM17.5154 36C17.5154 46.2096 25.7914 54.4856 36.001 54.4856C46.2106 54.4856 54.4865 46.2096 54.4865 36C54.4865 25.7904 46.2106 17.5144 36.001 17.5144C25.7914 17.5144 17.5154 25.7904 17.5154 36ZM50.8984 16.7815C50.898 17.6359 51.151 18.4712 51.6254 19.1818C52.0998 19.8924 52.7743 20.4464 53.5636 20.7737C54.3528 21.101 55.2214 21.1869 56.0594 21.0205C56.8975 20.8542 57.6674 20.443 58.2718 19.8391C58.8762 19.2352 59.288 18.4656 59.455 17.6277C59.622 16.7898 59.5368 15.9211 59.2102 15.1316C58.8835 14.3421 58.3301 13.6672 57.6199 13.1922C56.9096 12.7172 56.0745 12.4635 55.2201 12.4632H55.2184C54.0731 12.4637 52.9748 12.9188 52.1648 13.7285C51.3549 14.5381 50.8993 15.6362 50.8984 16.7815ZM21.457 65.3031C17.9471 65.1433 16.0394 64.5587 14.7716 64.0647C13.0909 63.4104 11.8916 62.6311 10.6308 61.3719C9.3699 60.1128 8.58942 58.9147 7.93797 57.234C7.44376 55.9668 6.85912 54.0585 6.69957 50.5486C6.52504 46.7539 6.49019 45.614 6.49019 36.0003C6.49019 26.3866 6.52792 25.2498 6.69957 21.452C6.85941 17.9421 7.44837 16.0376 7.93797 14.7666C8.5923 13.0859 9.37163 11.8866 10.6308 10.6258C11.8899 9.3649 13.088 8.58442 14.7716 7.93296C16.0388 7.43875 17.9471 6.85411 21.457 6.69456C25.2517 6.52003 26.3916 6.48518 36.001 6.48518C45.6104 6.48518 46.7514 6.52291 50.5493 6.69456C54.0592 6.8544 55.9637 7.44336 57.2346 7.93296C58.9154 8.58442 60.1146 9.36662 61.3755 10.6258C62.6364 11.8849 63.414 13.0859 64.0683 14.7666C64.5625 16.0338 65.1472 17.9421 65.3067 21.452C65.4812 25.2498 65.5161 26.3866 65.5161 36.0003C65.5161 45.614 65.4812 46.7508 65.3067 50.5486C65.1469 54.0585 64.5593 55.9662 64.0683 57.234C63.414 58.9147 62.6346 60.1139 61.3755 61.3719C60.1164 62.6299 58.9154 63.4104 57.2346 64.0647C55.9674 64.5589 54.0592 65.1436 50.5493 65.3031C46.7546 65.4777 45.6147 65.5125 36.001 65.5125C26.3872 65.5125 25.2505 65.4777 21.457 65.3031ZM21.1589 0.218016C17.3265 0.392544 14.7077 1.00022 12.4207 1.89014C10.0522 2.80915 8.04712 4.04208 6.0435 6.04253C4.03989 8.04298 2.81013 10.0512 1.89112 12.4197C1.0012 14.7082 0.393521 17.3255 0.218993 21.1579C0.0415846 24.9964 0.000976562 26.2236 0.000976562 36C0.000976562 45.7764 0.0415846 47.0036 0.218993 50.8421C0.393521 54.6748 1.0012 57.2918 1.89112 59.5803C2.81013 61.9474 4.04018 63.9579 6.0435 65.9575C8.04683 67.9571 10.0522 69.1883 12.4207 70.1099C14.712 70.9998 17.3265 71.6075 21.1589 71.782C24.9994 71.9565 26.2245 72 36.001 72C45.7774 72 47.0046 71.9594 50.8431 71.782C54.6758 71.6075 57.2928 70.9998 59.5813 70.1099C61.9483 69.1883 63.9548 67.9579 65.9584 65.9575C67.9621 63.957 69.1892 61.9474 70.1108 59.5803C71.0008 57.2918 71.6113 54.6745 71.783 50.8421C71.9575 47.0007 71.9981 45.7764 71.9981 36C71.9981 26.2236 71.9575 24.9964 71.783 21.1579C71.6084 17.3252 71.0008 14.7067 70.1108 12.4197C69.1892 10.0526 67.9589 8.04614 65.9584 6.04253C63.958 4.03891 61.9483 2.80915 59.5841 1.89014C57.2928 1.00022 54.6755 0.389664 50.8459 0.218016C47.0075 0.043488 45.7803 0 36.0039 0C26.2274 0 24.9994 0.040608 21.1589 0.218016Z"
            fill="url(#paint1_radial_164_103)" />
    </g>
    <defs>
        <radialGradient id="paint0_radial_164_103" cx="0" cy="0" r="1"
            gradientUnits="userSpaceOnUse"
            gradientTransform="translate(9.56661 72.3401) scale(93.9899 93.99)">
            <stop offset="0.09" stop-color="#FA8F21" />
            <stop offset="0.78" stop-color="#D82D7E" />
        </radialGradient>
        <radialGradient id="paint1_radial_164_103" cx="0" cy="0" r="1"
            gradientUnits="userSpaceOnUse"
            gradientTransform="translate(43.6658 75.5657) scale(74.0771)">
            <stop offset="0.64" stop-color="#8C3AAA" stop-opacity="0" />
            <stop offset="1" stop-color="#8C3AAA" />
        </radialGradient>
        <clipPath id="clip0_164_103">
            <rect width="72" height="72" fill="white" />
        </clipPath>
    </defs>
</svg>