<svg width="56" height="56" viewBox="0 0 56 56" fill="none" xmlns="http://www.w3.org/2000/svg">
<g id="Component 32">
<path id="Vector" d="M53.8432 24.9072L50.3432 21.4072C49.6944 20.759 48.8584 20.3311 47.9532 20.1839C47.0481 20.0367 46.1195 20.1776 45.2988 20.5868L35.4113 10.6993C35.8208 9.87885 35.9621 8.95045 35.8153 8.04529C35.6685 7.14012 35.241 6.30397 34.5932 5.65496L31.0932 2.15496C30.2727 1.33478 29.1602 0.874023 28.0001 0.874023C26.84 0.874023 25.7274 1.33478 24.9069 2.15496L10.9069 16.155C10.0867 16.9754 9.62599 18.088 9.62599 19.2481C9.62599 20.4082 10.0867 21.5208 10.9069 22.3412L14.4069 25.8412C15.0537 26.488 15.8868 26.9158 16.7893 27.0645C17.6918 27.2132 18.6181 27.0753 19.4382 26.6703L6.42256 39.6772C5.10965 40.9901 4.37207 42.7707 4.37207 44.6275C4.37207 46.4842 5.10965 48.2649 6.42256 49.5778C7.73546 50.8907 9.51614 51.6283 11.3729 51.6283C13.2296 51.6283 15.0103 50.8907 16.3232 49.5778L29.3126 36.5775C28.9111 37.3964 28.7756 38.3204 28.925 39.2201C29.0744 40.1198 29.5013 40.9504 30.146 41.5956L33.646 45.0956C34.0523 45.502 34.5346 45.8245 35.0656 46.0444C35.5965 46.2644 36.1655 46.3776 36.7402 46.3776C37.3149 46.3776 37.8839 46.2644 38.4149 46.0444C38.9458 45.8245 39.4282 45.502 39.8344 45.0956L53.8344 31.0956C54.2409 30.6893 54.5633 30.2069 54.7833 29.676C55.0032 29.1451 55.1165 28.5761 55.1165 28.0014C55.1165 27.4267 55.0032 26.8576 54.7833 26.3267C54.5633 25.7958 54.2409 25.3134 53.8344 24.9072H53.8432ZM17.5001 21.5122L15.2338 19.2503L28.0001 6.48621L30.2619 8.75028L17.5001 21.5122ZM12.6088 45.8656C12.2804 46.1937 11.8352 46.3779 11.371 46.3777C10.9068 46.3775 10.4617 46.1929 10.1337 45.8645C9.80557 45.5361 9.62137 45.0909 9.62158 44.6267C9.62178 44.1625 9.80637 43.7174 10.1347 43.3893L23.1547 30.3693L25.6288 32.8456L12.6088 45.8656ZM32.8869 32.6772L23.3232 23.1134L31.8544 14.5822L41.4182 24.1459L32.8869 32.6772ZM36.7479 40.7709L34.486 38.5003L47.2501 25.7384L49.5119 28.0003L36.7479 40.7709Z" fill="#003F88"/>
</g>
</svg>
