<svg width="56" height="56" viewBox="0 0 56 56" fill="none" xmlns="http://www.w3.org/2000/svg">
<g id="Component 32">
<path id="Vector" d="M15.6801 21.2665L7.59949 27.9996L15.6801 34.7327C15.9481 34.9523 16.17 35.2228 16.3329 35.5286C16.4958 35.8344 16.5966 36.1694 16.6294 36.5144C16.6623 36.8593 16.6265 37.2073 16.5241 37.5383C16.4218 37.8694 16.2549 38.1768 16.0332 38.4431C15.8114 38.7093 15.5391 38.929 15.2321 39.0895C14.925 39.25 14.5892 39.3481 14.244 39.3781C13.8988 39.4082 13.5511 39.3696 13.2209 39.2646C12.8907 39.1597 12.5846 38.9903 12.3201 38.7665L1.82011 30.0165C1.52439 29.7701 1.28645 29.4617 1.12317 29.1132C0.959885 28.7647 0.875244 28.3845 0.875244 27.9996C0.875244 27.6147 0.959885 27.2345 1.12317 26.886C1.28645 26.5374 1.52439 26.2291 1.82011 25.9827L12.3201 17.2327C12.8558 16.7937 13.5432 16.5842 14.2327 16.6498C14.9221 16.7154 15.5577 17.0508 16.0009 17.583C16.4442 18.1151 16.6592 18.8008 16.5991 19.4908C16.539 20.1807 16.2087 20.819 15.6801 21.2665ZM54.1801 25.9827L43.6801 17.2327C43.4157 17.0088 43.1095 16.8395 42.7793 16.7345C42.4491 16.6296 42.1014 16.591 41.7562 16.6211C41.411 16.6511 41.0752 16.7492 40.7682 16.9097C40.4611 17.0702 40.1888 17.2899 39.9671 17.5561C39.7453 17.8223 39.5784 18.1298 39.4761 18.4609C39.3738 18.7919 39.338 19.1399 39.3708 19.4848C39.4036 19.8297 39.5044 20.1648 39.6673 20.4706C39.8303 20.7763 40.0521 21.0468 40.3201 21.2665L48.4007 27.9996L40.3201 34.7327C40.0521 34.9523 39.8303 35.2228 39.6673 35.5286C39.5044 35.8344 39.4036 36.1694 39.3708 36.5144C39.338 36.8593 39.3738 37.2073 39.4761 37.5383C39.5784 37.8694 39.7453 38.1768 39.9671 38.4431C40.1888 38.7093 40.4611 38.929 40.7682 39.0895C41.0752 39.25 41.411 39.3481 41.7562 39.3781C42.1014 39.4082 42.4491 39.3696 42.7793 39.2646C43.1095 39.1597 43.4157 38.9903 43.6801 38.7665L54.1801 30.0165C54.4758 29.7701 54.7138 29.4617 54.8771 29.1132C55.0403 28.7647 55.125 28.3845 55.125 27.9996C55.125 27.6147 55.0403 27.2345 54.8771 26.886C54.7138 26.5374 54.4758 26.2291 54.1801 25.9827ZM35.897 6.28209C35.573 6.16425 35.2289 6.1114 34.8844 6.12656C34.54 6.14172 34.2019 6.2246 33.8894 6.37045C33.577 6.5163 33.2964 6.72228 33.0636 6.97661C32.8308 7.23094 32.6503 7.52864 32.5326 7.85271L18.5326 46.3527C18.2953 47.0069 18.3274 47.7285 18.622 48.3589C18.9165 48.9894 19.4493 49.4771 20.1032 49.7149C20.3904 49.8209 20.694 49.875 21.0001 49.8746C21.5391 49.8747 22.065 49.7089 22.5064 49.3997C22.9479 49.0905 23.2835 48.653 23.4676 48.1465L37.4676 9.64646C37.5855 9.32243 37.6383 8.97836 37.6231 8.6339C37.608 8.28944 37.5251 7.95134 37.3792 7.63891C37.2334 7.32649 37.0274 7.04586 36.7731 6.81305C36.5188 6.58024 36.2211 6.39982 35.897 6.28209Z" fill="#003F88"/>
</g>
</svg>
