<svg width="56" height="56" viewBox="0 0 56 56" fill="none" xmlns="http://www.w3.org/2000/svg">
<g id="Component 32">
<path id="Vector" d="M49.0612 30.844C47.8776 26.6725 45.488 22.9435 42.1925 20.1253H52.5C53.1962 20.1253 53.8639 19.8487 54.3562 19.3564C54.8484 18.8642 55.125 18.1965 55.125 17.5003C55.125 16.8041 54.8484 16.1364 54.3562 15.6441C53.8639 15.1518 53.1962 14.8753 52.5 14.8753H35.4244C34.8814 13.3401 33.8759 12.0109 32.5463 11.0709C31.2167 10.1308 29.6284 9.62598 28 9.62598C26.3716 9.62598 24.7833 10.1308 23.4537 11.0709C22.1241 12.0109 21.1186 13.3401 20.5756 14.8753H3.5C2.80381 14.8753 2.13613 15.1518 1.64384 15.6441C1.15156 16.1364 0.875 16.8041 0.875 17.5003C0.875 18.1965 1.15156 18.8642 1.64384 19.3564C2.13613 19.8487 2.80381 20.1253 3.5 20.1253H13.8075C10.512 22.9435 8.1224 26.6725 6.93875 30.844C5.13586 31.2735 3.54221 32.3251 2.43823 33.8138C1.33426 35.3025 0.790705 37.1328 0.903217 38.9827C1.01573 40.8327 1.7771 42.5836 3.05335 43.9275C4.3296 45.2714 6.03895 46.1222 7.8806 46.33C9.72226 46.5378 11.5782 46.0895 13.1219 45.0638C14.6655 44.0381 15.798 42.5008 16.3199 40.7225C16.8419 38.9442 16.7199 37.0387 15.9755 35.3415C15.231 33.6442 13.9118 32.2639 12.25 31.4434C12.9918 29.2657 14.1737 27.2638 15.7223 25.5624C17.2709 23.8611 19.153 22.4965 21.2516 21.5537C21.9517 22.7179 22.9411 23.6811 24.1236 24.3498C25.3061 25.0185 26.6415 25.3699 28 25.3699C29.3585 25.3699 30.6939 25.0185 31.8764 24.3498C33.0589 23.6811 34.0483 22.7179 34.7484 21.5537C36.847 22.4965 38.7291 23.8611 40.2777 25.5624C41.8263 27.2638 43.0082 29.2657 43.75 31.4434C42.0882 32.2639 40.769 33.6442 40.0245 35.3415C39.2801 37.0387 39.1581 38.9442 39.6801 40.7225C40.202 42.5008 41.3345 44.0381 42.8781 45.0638C44.4218 46.0895 46.2777 46.5378 48.1194 46.33C49.9611 46.1222 51.6704 45.2714 52.9467 43.9275C54.2229 42.5836 54.9843 40.8327 55.0968 38.9827C55.2093 37.1328 54.6657 35.3025 53.5618 33.8138C52.4578 32.3251 50.8641 31.2735 49.0612 30.844ZM8.75 41.1253C8.23082 41.1253 7.72331 40.9713 7.29163 40.6829C6.85995 40.3945 6.5235 39.9845 6.32482 39.5048C6.12614 39.0252 6.07415 38.4974 6.17544 37.9882C6.27672 37.479 6.52673 37.0112 6.89384 36.6441C7.26096 36.277 7.72869 36.027 8.23789 35.9257C8.74709 35.8244 9.27489 35.8764 9.75454 36.0751C10.2342 36.2738 10.6442 36.6102 10.9326 37.0419C11.221 37.4736 11.375 37.9811 11.375 38.5003C11.375 39.1965 11.0984 39.8642 10.6062 40.3564C10.1139 40.8487 9.44619 41.1253 8.75 41.1253ZM28 20.1253C27.4808 20.1253 26.9733 19.9713 26.5416 19.6829C26.1099 19.3945 25.7735 18.9845 25.5748 18.5048C25.3761 18.0252 25.3242 17.4974 25.4254 16.9882C25.5267 16.479 25.7767 16.0112 26.1438 15.6441C26.511 15.277 26.9787 15.027 27.4879 14.9257C27.9971 14.8244 28.5249 14.8764 29.0045 15.0751C29.4842 15.2738 29.8942 15.6102 30.1826 16.0419C30.471 16.4736 30.625 16.9811 30.625 17.5003C30.625 18.1965 30.3484 18.8642 29.8562 19.3564C29.3639 19.8487 28.6962 20.1253 28 20.1253ZM47.25 41.1253C46.7308 41.1253 46.2233 40.9713 45.7916 40.6829C45.36 40.3945 45.0235 39.9845 44.8248 39.5048C44.6261 39.0252 44.5742 38.4974 44.6754 37.9882C44.7767 37.479 45.0267 37.0112 45.3938 36.6441C45.761 36.277 46.2287 36.027 46.7379 35.9257C47.2471 35.8244 47.7749 35.8764 48.2545 36.0751C48.7342 36.2738 49.1442 36.6102 49.4326 37.0419C49.721 37.4736 49.875 37.9811 49.875 38.5003C49.875 39.1965 49.5984 39.8642 49.1062 40.3564C48.6139 40.8487 47.9462 41.1253 47.25 41.1253Z" fill="#003F88"/>
</g>
</svg>
