<svg xmlns="http://www.w3.org/2000/svg" width="72" height="72" viewBox="0 0 72 72" fill="none">
    <g clip-path="url(#clip0_164_104)">
        <path
            d="M17.9842 63.8491L19.2258 64.4672C24.2885 67.4651 30.0764 69.0321 35.9669 68.9995C54.1007 68.9583 69 54.0901 69 36.0368C69 27.3121 65.5193 18.9333 59.3299 12.7569C53.1487 6.5167 44.7038 3 35.9028 3C17.8518 3 3 17.7879 3 35.7567C3 35.8988 3 36.0389 3.00207 36.1811C3.05644 42.2903 4.77276 48.2707 7.96855 53.4864L8.79626 54.7225L5.48531 66.8775L17.9842 63.8491Z"
            fill="#00E676" />
        <path
            d="M61.6271 10.5085C54.9507 3.74833 45.7918 -0.0442333 36.2547 0.000389359H36.1939C16.5529 0.000450319 0.390232 16.0408 0.390232 35.5332C0.390232 35.6247 0.392198 35.7142 0.392198 35.8057C0.466178 42.0031 2.08276 48.0862 5.09808 53.5137L0 72L18.9999 67.1351C24.2487 69.995 30.1495 71.4691 36.137 71.4162C55.8507 71.3092 72.0114 55.1774 71.9996 35.6111C72.0466 26.2102 68.3114 17.1695 61.6271 10.5085ZM36.2547 65.3838C30.9472 65.4113 25.7331 63.9982 21.1763 61.2974L19.9999 60.7136L8.68621 63.6325L11.6274 52.5407L10.8431 51.3731C7.92975 46.7046 6.3863 41.3222 6.38622 35.8309C6.38622 19.6369 19.8136 6.31109 36.1312 6.31109C52.4487 6.31109 65.8761 19.6369 65.8761 35.8309C65.8761 46.0276 60.5526 55.5277 51.8232 60.9082C47.2064 63.8432 41.8356 65.397 36.3528 65.3838M53.588 43.784L51.4311 42.811C51.4311 42.811 48.2938 41.4488 46.3331 40.4759C46.137 40.4759 45.9409 40.2813 45.7448 40.2813C45.2614 40.2932 44.789 40.4271 44.3723 40.6705C43.9546 40.9137 44.1762 40.8651 41.4311 43.9785C41.2449 44.3425 40.8625 44.5702 40.4508 44.5624H40.2546C39.9599 44.5134 39.6867 44.3778 39.4704 44.1732L38.49 43.784C36.3864 42.9001 34.4602 41.6478 32.8037 40.0867C32.4116 39.6975 31.8234 39.3083 31.4312 38.9191C29.9796 37.5391 28.7261 35.9677 27.7057 34.2489L27.5096 33.8597C27.3393 33.6219 27.207 33.3593 27.1175 33.0813C27.0662 32.7443 27.1356 32.4 27.3135 32.1084C27.492 31.8165 28.0979 31.1354 28.6861 30.5516C29.2743 29.9679 29.2743 29.5787 29.6665 29.1895C29.868 28.9117 30.0073 28.5943 30.0749 28.2586C30.1426 27.923 30.137 27.5769 30.0586 27.2435C29.1448 24.7256 28.0976 22.2573 26.9214 19.849C26.6061 19.3624 26.1149 19.0142 25.5489 18.876H23.392C22.9999 18.876 22.6077 19.0706 22.2155 19.0706L22.0195 19.2652C21.6273 19.4598 21.2352 19.849 20.843 20.0436C20.4508 20.2382 20.2548 20.822 19.8626 21.2112C18.4919 22.9302 17.7334 25.0515 17.7058 27.2435C17.7275 28.7855 18.0609 30.3074 18.6861 31.7192L18.8822 32.3029C20.6428 36.0387 23.1051 39.4069 26.1371 42.2272L26.9214 43.0056C27.4921 43.4747 28.0173 43.9959 28.49 44.5624C32.5527 48.0708 37.3782 50.6006 42.588 51.9569C43.1762 52.1515 43.9605 52.1515 44.5487 52.3461H46.5095C47.5344 52.2959 48.5368 52.0306 49.4507 51.5677C49.931 51.3517 50.3899 51.091 50.8232 50.7894L51.2154 50.4001C51.6076 50.011 51.9997 49.8164 52.3918 49.4272C52.7751 49.0883 53.1055 48.6949 53.3722 48.2596C53.7487 47.3879 54.0134 46.4733 54.1566 45.5353V44.1732C53.9804 44.016 53.7822 43.885 53.5683 43.784"
            fill="white" />
    </g>
    <defs>
        <clipPath id="clip0_164_104">
            <rect width="72" height="72" fill="white" />
        </clipPath>
    </defs>
</svg>